<svg width="62" height="62" viewBox="0 0 62 62" fill="none" xmlns="http://www.w3.org/2000/svg">
<circle cx="31" cy="31" r="31" fill="url(#paint0_linear_1028_3192)"/>
<path d="M37 35.75C36.84 35.75 36.69 35.7 36.55 35.6C36.22 35.35 36.15 34.88 36.4 34.55C37.97 32.46 37.97 29.54 36.4 27.45C36.15 27.12 36.22 26.65 36.55 26.4C36.88 26.15 37.35 26.22 37.6 26.55C39.56 29.17 39.56 32.83 37.6 35.45C37.45 35.65 37.23 35.75 37 35.75Z" fill="white"/>
<path d="M38.83 38.25C38.67 38.25 38.52 38.2 38.38 38.1C38.05 37.85 37.98 37.38 38.23 37.05C40.9 33.49 40.9 28.51 38.23 24.95C37.98 24.62 38.05 24.15 38.38 23.9C38.71 23.65 39.18 23.72 39.43 24.05C42.5 28.14 42.5 33.86 39.43 37.95C39.29 38.15 39.06 38.25 38.83 38.25Z" fill="white"/>
<path d="M33.02 22.78C31.9 22.16 30.47 22.32 29.01 23.23L26.09 25.06C25.89 25.18 25.66 25.25 25.43 25.25H24.5H24C21.58 25.25 20.25 26.58 20.25 29V33C20.25 35.42 21.58 36.75 24 36.75H24.5H25.43C25.66 36.75 25.89 36.82 26.09 36.94L29.01 38.77C29.89 39.32 30.75 39.59 31.55 39.59C32.07 39.59 32.57 39.47 33.02 39.22C34.13 38.6 34.75 37.31 34.75 35.59V26.41C34.75 24.69 34.13 23.4 33.02 22.78Z" fill="white"/>
<defs>
<linearGradient id="paint0_linear_1028_3192" x1="-0.028972" y1="30.9884" x2="62.0097" y2="30.9884" gradientUnits="userSpaceOnUse">
<stop stop-color="#FF687D"/>
<stop offset="1" stop-color="#D62D54"/>
</linearGradient>
</defs>
</svg>
