<svg width="62" height="62" viewBox="0 0 62 62" fill="none" xmlns="http://www.w3.org/2000/svg">
<circle cx="31" cy="31" r="31" fill="url(#paint0_linear_1278_4787)"/>
<path d="M35 38C34.45 38 33.9793 37.8043 33.588 37.413C33.1967 37.0217 33.0007 36.5507 33 36V26C33 25.45 33.196 24.9793 33.588 24.588C33.98 24.1967 34.4507 24.0007 35 24C35.5493 23.9993 36.0203 24.1953 36.413 24.588C36.8057 24.9807 37.0013 25.4513 37 26V36C37 36.55 36.8043 37.021 36.413 37.413C36.0217 37.805 35.5507 38.0007 35 38ZM27 38C26.45 38 25.9793 37.8043 25.588 37.413C25.1967 37.0217 25.0007 36.5507 25 36V26C25 25.45 25.196 24.9793 25.588 24.588C25.98 24.1967 26.4507 24.0007 27 24C27.5493 23.9993 28.0203 24.1953 28.413 24.588C28.8057 24.9807 29.0013 25.4513 29 26V36C29 36.55 28.8043 37.021 28.413 37.413C28.0217 37.805 27.5507 38.0007 27 38Z" fill="white"/>
<defs>
<linearGradient id="paint0_linear_1278_4787" x1="-0.028972" y1="30.9884" x2="62.0097" y2="30.9884" gradientUnits="userSpaceOnUse">
<stop stop-color="#FF687D"/>
<stop offset="1" stop-color="#D62D54"/>
</linearGradient>
</defs>
</svg>
