<svg width="24" height="24" viewBox="0 0 24 24" fill="none" xmlns="http://www.w3.org/2000/svg">
<path d="M11.25 18.2509H9C7.9 18.2509 7 19.1509 7 20.2509V20.5009H6C5.59 20.5009 5.25 20.8409 5.25 21.2509C5.25 21.6609 5.59 22.0009 6 22.0009H18C18.41 22.0009 18.75 21.6609 18.75 21.2509C18.75 20.8409 18.41 20.5009 18 20.5009H17V20.2509C17 19.1509 16.1 18.2509 15 18.2509H12.75V15.9609C12.5 15.9909 12.25 16.0009 12 16.0009C11.75 16.0009 11.5 15.9909 11.25 15.9609V18.2509Z" fill="#27272A"/>
<path d="M18.48 11.641C19.14 11.391 19.72 10.981 20.18 10.521C21.11 9.49098 21.72 8.26098 21.72 6.82098C21.72 5.38098 20.59 4.25098 19.15 4.25098H18.59C17.94 2.92098 16.58 2.00098 15 2.00098H9.00003C7.42003 2.00098 6.06003 2.92098 5.41003 4.25098H4.85003C3.41003 4.25098 2.28003 5.38098 2.28003 6.82098C2.28003 8.26098 2.89003 9.49098 3.82003 10.521C4.28003 10.981 4.86003 11.391 5.52003 11.641C6.56003 14.201 9.06003 16.001 12 16.001C14.94 16.001 17.44 14.201 18.48 11.641ZM14.84 8.45098L14.22 9.21098C14.12 9.32098 14.05 9.54098 14.06 9.69098L14.12 10.671C14.16 11.271 13.73 11.581 13.17 11.361L12.26 11.001C12.12 10.951 11.88 10.951 11.74 11.001L10.83 11.361C10.27 11.581 9.84003 11.271 9.88003 10.671L9.94003 9.69098C9.95003 9.54098 9.88003 9.32098 9.78003 9.21098L9.16003 8.45098C8.77003 7.99098 8.94003 7.48098 9.52003 7.33098L10.47 7.09098C10.62 7.05098 10.8 6.91098 10.88 6.78098L11.41 5.96098C11.74 5.45098 12.26 5.45098 12.59 5.96098L13.12 6.78098C13.2 6.91098 13.38 7.05098 13.53 7.09098L14.48 7.33098C15.06 7.48098 15.23 7.99098 14.84 8.45098Z" fill="#27272A"/>
</svg>
