<svg width="24" height="24" viewBox="0 0 24 24" fill="none" xmlns="http://www.w3.org/2000/svg">
<g id="currency-dollar">
<path id="Vector" d="M10.1196 8.90145C10.3056 8.77785 10.5348 8.66625 10.8 8.58105V10.6187C10.5597 10.5433 10.3308 10.4355 10.1196 10.2983C9.68401 10.0079 9.60001 9.73665 9.60001 9.59985C9.60001 9.46305 9.68401 9.19185 10.1196 8.90145ZM13.2 15.4187V13.3811C13.464 13.4663 13.6944 13.5779 13.8804 13.7015C14.3172 13.9931 14.4 14.2631 14.4 14.3999C14.4 14.5367 14.316 14.8079 13.8804 15.0983C13.6693 15.2355 13.4403 15.3433 13.2 15.4187Z" fill="#F14968"/>
<path id="Vector_2" fill-rule="evenodd" clip-rule="evenodd" d="M12 21.6004C14.5461 21.6004 16.9879 20.589 18.7882 18.7886C20.5886 16.9883 21.6 14.5465 21.6 12.0004C21.6 9.45431 20.5886 7.01252 18.7882 5.21217C16.9879 3.41182 14.5461 2.40039 12 2.40039C9.45392 2.40039 7.01212 3.41182 5.21177 5.21217C3.41142 7.01252 2.39999 9.45431 2.39999 12.0004C2.39999 14.5465 3.41142 16.9883 5.21177 18.7886C7.01212 20.589 9.45392 21.6004 12 21.6004ZM13.2 6.00039C13.2 5.68213 13.0736 5.37691 12.8485 5.15186C12.6235 4.92682 12.3183 4.80039 12 4.80039C11.6817 4.80039 11.3765 4.92682 11.1515 5.15186C10.9264 5.37691 10.8 5.68213 10.8 6.00039V6.11079C10.0832 6.23839 9.3993 6.50852 8.78879 6.90519C7.92239 7.48119 7.19999 8.41119 7.19999 9.60039C7.19999 10.7884 7.92239 11.7184 8.78879 12.2956C9.36479 12.6796 10.0536 12.9496 10.8 13.09V15.4192C10.3308 15.2668 9.98399 15.0388 9.78839 14.8144C9.68688 14.6898 9.56137 14.5869 9.41933 14.5118C9.27728 14.4366 9.12159 14.3907 8.96149 14.3769C8.80139 14.3631 8.64013 14.3815 8.4873 14.4312C8.33447 14.4809 8.19317 14.5607 8.07178 14.666C7.9504 14.7713 7.8514 14.8999 7.78066 15.0442C7.70993 15.1885 7.66889 15.3456 7.66 15.506C7.6511 15.6665 7.67452 15.8271 7.72887 15.9783C7.78322 16.1295 7.86739 16.2683 7.97639 16.3864C8.65079 17.1652 9.67199 17.6776 10.8 17.89V18.0004C10.8 18.3187 10.9264 18.6239 11.1515 18.8489C11.3765 19.074 11.6817 19.2004 12 19.2004C12.3183 19.2004 12.6235 19.074 12.8485 18.8489C13.0736 18.6239 13.2 18.3187 13.2 18.0004V17.89C13.9168 17.7624 14.6007 17.4923 15.2112 17.0956C16.0776 16.5196 16.8 15.5896 16.8 14.4004C16.8 13.2124 16.0776 12.2824 15.2112 11.7052C14.6007 11.3085 13.9168 11.0384 13.2 10.9108V8.58159C13.6692 8.73399 14.016 8.96199 14.2116 9.18639C14.3141 9.30797 14.4397 9.40797 14.5811 9.48058C14.7226 9.5532 14.877 9.59698 15.0355 9.60939C15.194 9.62179 15.3534 9.60257 15.5045 9.55285C15.6555 9.50312 15.7951 9.42388 15.9152 9.31973C16.0354 9.21558 16.1336 9.08859 16.2042 8.94615C16.2749 8.8037 16.3165 8.64864 16.3267 8.48998C16.3369 8.33131 16.3154 8.17219 16.2636 8.02188C16.2118 7.87157 16.1306 7.73306 16.0248 7.61439C15.3492 6.83559 14.3292 6.32319 13.2 6.11079V6.00039Z" fill="#F14968"/>
</g>
</svg>
