<svg width="24" height="24" viewBox="0 0 24 24" fill="none" xmlns="http://www.w3.org/2000/svg">
<path fill-rule="evenodd" clip-rule="evenodd" d="M14.1085 2.44089C14.4409 2.52849 14.7193 2.75526 14.8741 3.06366C15.4537 4.22406 15.8869 4.9285 16.3225 5.4997C16.7641 6.0781 17.2297 6.55087 17.9401 7.26007C19.5793 8.90047 20.4001 11.0521 20.4001 13.2001C20.4001 15.3481 19.5793 17.4997 17.9401 19.1401C14.6593 22.4197 9.3409 22.4197 6.0601 19.1401C4.4209 17.4997 3.6001 15.3481 3.6001 13.2001C3.6001 11.0521 4.4209 8.90047 6.0601 7.26007C6.4033 6.91687 6.9193 6.81487 7.3681 7.00087C7.8169 7.18567 8.1085 7.62371 8.1085 8.10851C8.1085 9.45251 8.1925 10.4761 8.5861 11.2933C8.8021 11.7421 9.13931 12.1813 9.72011 12.5737C9.85931 11.3005 10.1137 9.7489 10.4569 8.2777C10.7269 7.1185 11.0629 5.96169 11.4637 4.99689C11.6641 4.51329 11.8909 4.05486 12.1477 3.65766C12.3973 3.27126 12.7189 2.87892 13.1341 2.60172C13.4209 2.41092 13.7761 2.35209 14.1085 2.44089ZM14.5453 18.1453C13.1401 19.5517 10.8601 19.5517 9.4549 18.1453C8.7517 17.4433 8.4001 16.5217 8.4001 15.6001C8.4001 15.6001 9.4549 16.2001 11.4001 16.2001C11.4001 15.0001 12.0001 11.4001 12.9001 10.8001C13.5001 12.0001 13.8433 12.3517 14.5453 13.0549C15.2485 13.7569 15.6001 14.6785 15.6001 15.6001C15.6001 16.5217 15.2485 17.4433 14.5453 18.1453Z" fill="#27272A"/>
</svg>
