<svg width="42" height="40" viewBox="0 0 42 40" fill="none" xmlns="http://www.w3.org/2000/svg">
<path d="M8.90918 24.4043C8.90918 23.2997 9.80461 22.4043 10.9092 22.4043H30.668C31.7725 22.4043 32.668 23.2997 32.668 24.4043V37.8774C32.668 39.3362 31.1566 40.3042 29.8315 39.6941L21.625 35.9158C21.0942 35.6714 20.483 35.6714 19.9522 35.9158L11.7456 39.6941C10.4205 40.3042 8.90918 39.3362 8.90918 37.8774V24.4043Z" fill="#FFC701"/>
<path d="M10.5 5.38074C7.71522 8.13393 6.15076 11.868 6.15076 15.7616C6.15076 19.6552 7.71522 23.3894 10.5 26.1425C13.2848 28.8957 17.0617 30.4424 21 30.4424C24.9383 30.4424 28.7152 28.8957 31.5 26.1425L21 15.7616L10.5 5.38074Z" fill="#FFE965"/>
<g filter="url(#filter0_d_357_2464)">
<path d="M31.5 26.1427C34.2848 23.3895 35.8492 19.6554 35.8492 15.7618C35.8492 11.8682 34.2848 8.13409 31.5 5.3809C28.7152 2.62771 24.9383 1.08099 21 1.08099C17.0617 1.08099 13.2848 2.62771 10.5 5.3809L21 15.7618L31.5 26.1427Z" fill="#FFD900"/>
</g>
<g filter="url(#filter1_d_357_2464)">
<path d="M34.3494 15.7628C34.3494 23.0263 28.3889 28.9436 21.0001 28.9436C13.6114 28.9436 7.65088 23.0263 7.65088 15.7628C7.65088 8.49937 13.6114 2.58203 21.0001 2.58203C28.3889 2.58203 34.3494 8.49937 34.3494 15.7628Z" stroke="#FFC700" stroke-width="3" shape-rendering="crispEdges"/>
</g>
<path d="M17.0891 14.1631V11.6631L20.5491 9.62312H22.6691V22.7031H20.2891V12.2231L17.0891 14.1631Z" fill="#FF7A00"/>
<defs>
<filter id="filter0_d_357_2464" x="9.5" y="1.08008" width="27.3491" height="27.0625" filterUnits="userSpaceOnUse" color-interpolation-filters="sRGB">
<feFlood flood-opacity="0" result="BackgroundImageFix"/>
<feColorMatrix in="SourceAlpha" type="matrix" values="0 0 0 0 0 0 0 0 0 0 0 0 0 0 0 0 0 0 127 0" result="hardAlpha"/>
<feOffset dy="1"/>
<feGaussianBlur stdDeviation="0.5"/>
<feComposite in2="hardAlpha" operator="out"/>
<feColorMatrix type="matrix" values="0 0 0 0 0 0 0 0 0 0 0 0 0 0 0 0 0 0 0.15 0"/>
<feBlend mode="normal" in2="BackgroundImageFix" result="effect1_dropShadow_357_2464"/>
<feBlend mode="normal" in="SourceGraphic" in2="effect1_dropShadow_357_2464" result="shape"/>
</filter>
<filter id="filter1_d_357_2464" x="5.15088" y="1.08203" width="31.6982" height="31.3613" filterUnits="userSpaceOnUse" color-interpolation-filters="sRGB">
<feFlood flood-opacity="0" result="BackgroundImageFix"/>
<feColorMatrix in="SourceAlpha" type="matrix" values="0 0 0 0 0 0 0 0 0 0 0 0 0 0 0 0 0 0 127 0" result="hardAlpha"/>
<feOffset dy="1"/>
<feGaussianBlur stdDeviation="0.5"/>
<feComposite in2="hardAlpha" operator="out"/>
<feColorMatrix type="matrix" values="0 0 0 0 0 0 0 0 0 0 0 0 0 0 0 0 0 0 0.4 0"/>
<feBlend mode="normal" in2="BackgroundImageFix" result="effect1_dropShadow_357_2464"/>
<feBlend mode="normal" in="SourceGraphic" in2="effect1_dropShadow_357_2464" result="shape"/>
</filter>
</defs>
</svg>
