<svg width="24" height="24" viewBox="0 0 24 24" fill="none" xmlns="http://www.w3.org/2000/svg">
<path d="M12.8482 2.75173C12.6232 2.52677 12.318 2.40039 11.9998 2.40039C11.6816 2.40039 11.3764 2.52677 11.1514 2.75173L2.7514 11.1517C2.53282 11.3781 2.41186 11.6812 2.4146 11.9958C2.41733 12.3105 2.54353 12.6114 2.76602 12.8339C2.98851 13.0564 3.28949 13.1826 3.60412 13.1853C3.91876 13.1881 4.22188 13.0671 4.44821 12.8485L4.79981 12.4969V20.4001C4.79981 20.7184 4.92623 21.0236 5.15128 21.2487C5.37632 21.4737 5.68155 21.6001 5.99981 21.6001H8.39981C8.71807 21.6001 9.02329 21.4737 9.24833 21.2487C9.47338 21.0236 9.59981 20.7184 9.59981 20.4001V18.0001C9.59981 17.6819 9.72623 17.3767 9.95128 17.1516C10.1763 16.9266 10.4815 16.8001 10.7998 16.8001H13.1998C13.5181 16.8001 13.8233 16.9266 14.0483 17.1516C14.2734 17.3767 14.3998 17.6819 14.3998 18.0001V20.4001C14.3998 20.7184 14.5262 21.0236 14.7513 21.2487C14.9763 21.4737 15.2815 21.6001 15.5998 21.6001H17.9998C18.3181 21.6001 18.6233 21.4737 18.8483 21.2487C19.0734 21.0236 19.1998 20.7184 19.1998 20.4001V12.4969L19.5514 12.8485C19.7777 13.0671 20.0809 13.1881 20.3955 13.1853C20.7101 13.1826 21.0111 13.0564 21.2336 12.8339C21.4561 12.6114 21.5823 12.3105 21.585 11.9958C21.5877 11.6812 21.4668 11.3781 21.2482 11.1517L12.8482 2.75173V2.75173Z" fill="#27272A"/>
</svg>
