<svg width="24" height="24" viewBox="0 0 24 24" fill="none" xmlns="http://www.w3.org/2000/svg">
<g id="home">
<path id="Vector" d="M12.8483 2.75173C12.6233 2.52677 12.3181 2.40039 11.9999 2.40039C11.6817 2.40039 11.3765 2.52677 11.1515 2.75173L2.7515 11.1517C2.53291 11.3781 2.41195 11.6812 2.41469 11.9958C2.41742 12.3105 2.54362 12.6114 2.76611 12.8339C2.9886 13.0564 3.28958 13.1826 3.60421 13.1853C3.91885 13.1881 4.22197 13.0671 4.4483 12.8485L4.7999 12.4969V20.4001C4.7999 20.7184 4.92633 21.0236 5.15137 21.2487C5.37641 21.4737 5.68164 21.6001 5.9999 21.6001H8.3999C8.71816 21.6001 9.02338 21.4737 9.24843 21.2487C9.47347 21.0236 9.5999 20.7184 9.5999 20.4001V18.0001C9.5999 17.6819 9.72633 17.3767 9.95137 17.1516C10.1764 16.9266 10.4816 16.8001 10.7999 16.8001H13.1999C13.5182 16.8001 13.8234 16.9266 14.0484 17.1516C14.2735 17.3767 14.3999 17.6819 14.3999 18.0001V20.4001C14.3999 20.7184 14.5263 21.0236 14.7514 21.2487C14.9764 21.4737 15.2816 21.6001 15.5999 21.6001H17.9999C18.3182 21.6001 18.6234 21.4737 18.8484 21.2487C19.0735 21.0236 19.1999 20.7184 19.1999 20.4001V12.4969L19.5515 12.8485C19.7778 13.0671 20.0809 13.1881 20.3956 13.1853C20.7102 13.1826 21.0112 13.0564 21.2337 12.8339C21.4562 12.6114 21.5824 12.3105 21.5851 11.9958C21.5878 11.6812 21.4669 11.3781 21.2483 11.1517L12.8483 2.75173Z" fill="#FF8896"/>
</g>
</svg>
