<svg width="24" height="24" viewBox="0 0 24 24" fill="none" xmlns="http://www.w3.org/2000/svg">
<g id="lightning-bolt">
<path id="Vector" fill-rule="evenodd" clip-rule="evenodd" d="M13.56 1.25559C13.8036 1.3322 14.0164 1.48452 14.1675 1.69041C14.3185 1.8963 14.4 2.14502 14.4 2.40039V8.40039H19.2C19.4195 8.40029 19.6348 8.4604 19.8225 8.57418C20.0102 8.68795 20.1631 8.85103 20.2646 9.04568C20.3661 9.24032 20.4122 9.45906 20.398 9.67811C20.3838 9.89715 20.3097 10.1081 20.184 10.288L11.784 22.288C11.6378 22.4974 11.4286 22.6548 11.1868 22.7371C10.945 22.8194 10.6832 22.8225 10.4396 22.7458C10.196 22.6691 9.98316 22.5166 9.83215 22.3106C9.68114 22.1046 9.5998 21.8558 9.59996 21.6004V15.6004H4.79996C4.58046 15.6005 4.36513 15.5404 4.17742 15.4266C3.98971 15.3128 3.8368 15.1497 3.73533 14.9551C3.63387 14.7605 3.58773 14.5417 3.60195 14.3227C3.61616 14.1036 3.69019 13.8927 3.81596 13.7128L12.216 1.71279C12.3624 1.50373 12.5716 1.3468 12.8133 1.2648C13.055 1.18279 13.3166 1.17999 13.56 1.25679V1.25559Z" fill="#FF8896"/>
</g>
</svg>
