<svg width="24" height="24" viewBox="0 0 24 24" fill="none" xmlns="http://www.w3.org/2000/svg">
<path fill-rule="evenodd" clip-rule="evenodd" d="M3.5999 3.60059C3.28164 3.60059 2.97642 3.72701 2.75137 3.95206C2.52633 4.1771 2.3999 4.48233 2.3999 4.80059V19.2006C2.3999 19.5188 2.52633 19.8241 2.75137 20.0491C2.97642 20.2742 3.28164 20.4006 3.5999 20.4006C3.91816 20.4006 4.22339 20.2742 4.44843 20.0491C4.67347 19.8241 4.7999 19.5188 4.7999 19.2006V4.80059C4.7999 4.48233 4.67347 4.1771 4.44843 3.95206C4.22339 3.72701 3.91816 3.60059 3.5999 3.60059V3.60059ZM15.9515 14.7522C15.7329 14.9785 15.612 15.2816 15.6147 15.5963C15.6174 15.9109 15.7436 16.2119 15.9661 16.4344C16.1886 16.6569 16.4896 16.7831 16.8042 16.7858C17.1189 16.7885 17.422 16.6676 17.6483 16.449L21.2483 12.849C21.4733 12.624 21.5996 12.3188 21.5996 12.0006C21.5996 11.6824 21.4733 11.3772 21.2483 11.1522L17.6483 7.55219C17.5376 7.43757 17.4052 7.34616 17.2588 7.28326C17.1124 7.22037 16.9549 7.18727 16.7956 7.18589C16.6362 7.1845 16.4782 7.21486 16.3308 7.2752C16.1833 7.33554 16.0493 7.42464 15.9366 7.53731C15.824 7.64998 15.7349 7.78397 15.6745 7.93144C15.6142 8.07892 15.5838 8.23693 15.5852 8.39627C15.5866 8.5556 15.6197 8.71307 15.6826 8.85947C15.7455 9.00588 15.8369 9.13829 15.9515 9.24899L17.5031 10.8006H8.3999C8.08164 10.8006 7.77642 10.927 7.55137 11.1521C7.32633 11.3771 7.1999 11.6823 7.1999 12.0006C7.1999 12.3188 7.32633 12.6241 7.55137 12.8491C7.77642 13.0742 8.08164 13.2006 8.3999 13.2006H17.5031L15.9515 14.7522V14.7522Z" fill="#27272A"/>
</svg>
