<svg width="24" height="25" viewBox="0 0 24 25" fill="none" xmlns="http://www.w3.org/2000/svg">
<g id="Group">
<g id="Group_2">
<path id="Vector" d="M15.0992 9.20898L6.26557 16.3629C5.14407 17.2707 3.74968 17.8049 2.31043 17.7751C1.89547 17.7676 1.49548 17.7153 1.1665 17.5883C2.28426 19.9156 4.13472 21.8246 6.4151 23.0238C6.4151 20.9467 7.13659 18.9294 8.45248 17.323L15.0992 9.20898Z" fill="white"/>
<path id="Vector_2" d="M18.2955 5.3298C17.4806 5.05709 16.6095 5.71831 15.9441 6.09936C14.8787 6.71202 13.8544 7.36952 12.9273 8.17644C12.2133 8.80031 11.5366 9.28969 10.6993 9.75292C9.80206 10.2535 8.41888 9.8239 7.50299 9.62964C6.26187 9.36814 5.00579 9.14773 3.73477 9.11411C3.15533 9.09543 2.57215 9.11411 1.99645 9.15894C1.59271 9.19256 1.06935 9.1963 0.796449 9.5624C0.777757 9.58481 0.628223 9.81643 0.695513 9.85005L7.74972 13.4326L15.5852 8.72186L10.7217 16.8135C10.6207 16.9891 11.1516 17.5868 11.2413 17.725C12.045 18.9802 12.7628 20.3699 13.3572 21.7297C13.6301 22.3536 13.832 23.3212 14.6693 23.3809C14.7516 23.3884 15.2899 23.4332 15.2749 23.2763C15.017 21.0125 14.7703 18.7411 14.5086 16.4735C14.4114 15.6554 14.1834 14.7177 14.3778 13.9258C14.5385 13.2683 14.7329 12.9619 15.189 12.5136C15.6525 12.0579 16.0899 11.576 16.4899 11.0679C17.2824 10.0742 17.9591 8.97962 18.445 7.8066C18.703 7.18273 19.2787 5.66228 18.303 5.33727L18.2955 5.3298Z" fill="white"/>
</g>
<path id="Vector_3" d="M23.9626 13.3336C23.9701 13.2476 23.9776 13.1654 23.9813 13.0795C23.9888 12.9824 23.9888 12.8815 23.9925 12.7807C23.9925 12.6985 24 12.6163 24 12.5341C24 12.5117 24 12.4893 24 12.4669C24 12.3473 24 12.2315 23.9963 12.1157C23.9963 12.0223 23.9963 11.9289 23.9888 11.8355C23.985 11.716 23.9738 11.5964 23.9664 11.4806C23.9589 11.391 23.9551 11.3013 23.9477 11.2116C23.9364 11.0884 23.9178 10.9651 23.9028 10.8418C23.8916 10.7596 23.8841 10.6774 23.8729 10.5952C23.8542 10.4608 23.828 10.33 23.8019 10.1955C23.7906 10.1283 23.7794 10.0573 23.7645 9.99006C23.7271 9.81448 23.686 9.6389 23.6449 9.46332C23.6374 9.4409 23.6336 9.41849 23.6299 9.39607C23.5776 9.19808 23.5252 9.00382 23.4654 8.8133C23.4505 8.76473 23.4318 8.7199 23.4168 8.67507C23.3682 8.52938 23.3234 8.38742 23.271 8.24546C23.2486 8.18196 23.2224 8.11845 23.1963 8.05494C23.1477 7.93166 23.1028 7.80838 23.0505 7.68884C23.0206 7.61786 22.9869 7.55061 22.957 7.48337C22.9047 7.3713 22.8561 7.25923 22.8037 7.14715C22.7701 7.07617 22.7327 7.00519 22.6953 6.93795C22.6393 6.83335 22.5869 6.72501 22.5308 6.62041C22.4935 6.54943 22.4486 6.47845 22.4112 6.41121C22.3514 6.31035 22.2953 6.20948 22.2318 6.10861C22.1869 6.03764 22.1421 5.97039 22.1009 5.90315C22.0374 5.80602 21.9738 5.70889 21.9103 5.6155C21.8654 5.54825 21.8168 5.48101 21.7682 5.41377C21.7009 5.32037 21.6336 5.22698 21.5664 5.13732C21.5178 5.07008 21.4654 5.00657 21.4131 4.94306C21.3421 4.8534 21.271 4.76375 21.1963 4.67782C21.1439 4.61432 21.0878 4.55454 21.0355 4.49104C20.9607 4.40511 20.8822 4.31919 20.8075 4.237C20.7514 4.17723 20.6953 4.11746 20.6355 4.05769C20.557 3.9755 20.4748 3.89332 20.3925 3.81487C20.3327 3.75883 20.2729 3.69906 20.2131 3.64302C20.1308 3.56457 20.0449 3.48985 19.9589 3.4114C19.8953 3.35537 19.8355 3.30307 19.772 3.24703C19.686 3.17232 19.5963 3.10134 19.5065 3.03036C19.443 2.97806 19.3757 2.92576 19.3121 2.87719C19.2224 2.80621 19.129 2.73897 19.0355 2.67173C18.9682 2.62316 18.9009 2.5746 18.8336 2.52603C18.7402 2.46252 18.643 2.39902 18.5458 2.33551C18.4748 2.29068 18.4075 2.24585 18.3364 2.20102C18.2393 2.14125 18.1383 2.08148 18.0411 2.02544C17.9701 1.98435 17.8991 1.94325 17.8243 1.90216C17.7234 1.84613 17.6187 1.79382 17.5178 1.73779C17.443 1.70043 17.372 1.66307 17.2972 1.62572C17.1925 1.57342 17.0841 1.52485 16.9794 1.47629C16.9047 1.44266 16.8299 1.40904 16.7551 1.37542C16.6467 1.32686 16.5346 1.28576 16.4262 1.24093C16.3514 1.21105 16.2766 1.18116 16.1981 1.15128C16.086 1.11018 15.9701 1.07283 15.8579 1.03173C15.7832 1.00558 15.7047 0.979432 15.6299 0.953281C15.5103 0.915924 15.3907 0.882302 15.271 0.84868C15.1963 0.826266 15.1215 0.803851 15.0467 0.785173C14.9196 0.751551 14.7925 0.725401 14.6617 0.695515C14.5907 0.680572 14.5234 0.661893 14.4523 0.64695C14.3028 0.617064 14.1533 0.590914 14.0037 0.564764C13.9514 0.557292 13.8991 0.546085 13.8505 0.538613C13.6486 0.508727 13.443 0.482577 13.2336 0.460163C13.2 0.460163 13.1664 0.456427 13.1364 0.452691C12.9607 0.437748 12.7888 0.422805 12.6131 0.415334C12.5383 0.415334 12.4635 0.415334 12.3888 0.407862C12.2542 0.404126 12.1196 0.400391 11.9813 0.400391C11.8953 0.400391 11.8131 0.404126 11.7271 0.407862C11.6 0.407862 11.4766 0.411598 11.3495 0.419069C11.3346 0.419069 11.3159 0.419069 11.3009 0.419069C11.1626 0.426541 11.0243 0.441484 10.8897 0.452691C10.8523 0.452691 10.8112 0.456427 10.7738 0.463898C10.5757 0.482577 10.3813 0.508727 10.1869 0.538613C10.1607 0.542349 10.1308 0.549821 10.1047 0.553556C9.94766 0.579707 9.79065 0.605857 9.63365 0.639479C9.51028 0.665629 9.38692 0.691779 9.26729 0.721665C9.21122 0.736608 9.15514 0.747815 9.09907 0.759023C8.94206 0.79638 8.78879 0.841209 8.63552 0.886038C8.61682 0.889774 8.59813 0.897245 8.58318 0.900981C4.66168 2.07774 1.55514 5.22324 0.448603 9.1794C0.429911 9.24291 0.411216 9.30642 0.392524 9.36992C0.373833 9.4409 0.35888 9.51188 0.340188 9.58286C0.310282 9.7024 0.280375 9.82195 0.257945 9.94523C0.24673 10.0013 0.235516 10.061 0.224301 10.1171C0.198133 10.2516 0.171964 10.386 0.153272 10.5243C0.145796 10.5803 0.138322 10.6401 0.127107 10.6999C0.108416 10.8343 0.0897242 10.9688 0.0747709 11.1033C0.0672943 11.1706 0.0598165 11.2415 0.0560782 11.3088C0.0486015 11.3835 0.0411258 11.4582 0.0336492 11.5329C0.0299109 11.5964 0.0261673 11.6562 0.022429 11.7197C0.022429 11.7571 0.0186948 11.7982 0.0149565 11.8355C0.00747983 12.0186 0 12.1979 0 12.3809C0 12.4071 0 12.437 0 12.4631C0 12.6238 0.00373786 12.7881 0.0112145 12.9488C0.0112145 12.9899 0.0112181 13.0272 0.0149565 13.0683C0.0261714 13.2439 0.0373866 13.4232 0.0560782 13.5951C0.0560782 13.6324 0.0635544 13.6698 0.0672927 13.7071C0.0822459 13.8566 0.100935 14.006 0.123365 14.1517C0.130842 14.189 0.134583 14.2301 0.138322 14.2675C0.16449 14.4356 0.194393 14.6 0.228038 14.7681C0.239253 14.8166 0.24673 14.8615 0.257945 14.91C0.287851 15.0483 0.317758 15.1865 0.351403 15.321C0.358879 15.3583 0.370097 15.3957 0.377574 15.433C0.418695 15.5937 0.463555 15.7506 0.512153 15.9075C0.527107 15.956 0.542058 16.0046 0.557011 16.0532C0.601871 16.1989 0.654207 16.3446 0.702805 16.4903C0.710282 16.5089 0.714022 16.5239 0.721498 16.5426C0.781311 16.7069 0.844861 16.8676 0.91215 17.0282C0.923365 17.0581 0.938321 17.088 0.949536 17.1179C1.01683 17.2748 1.08785 17.4354 1.16262 17.5886C1.16262 17.5886 1.16262 17.5886 1.16262 17.5923C1.48785 17.7193 1.88785 17.7716 2.30654 17.7791C3.74579 17.809 5.14392 17.271 6.26168 16.367L15.0953 9.21302L8.4486 17.3271C7.13271 18.9372 6.41122 20.9507 6.41122 23.0278C6.44486 23.0465 6.48224 23.0614 6.51589 23.0801C6.66542 23.1548 6.81495 23.2296 6.96822 23.3005C7.03925 23.3342 7.11028 23.3678 7.18505 23.3977C7.3271 23.4612 7.4729 23.5172 7.61869 23.577C7.68598 23.6031 7.75701 23.633 7.8243 23.6592C8.02991 23.7339 8.23552 23.8049 8.44486 23.8721C8.51215 23.8945 8.57944 23.9095 8.64673 23.9281C8.8 23.973 8.95327 24.0141 9.11028 24.0514C9.19626 24.0738 9.28224 24.0925 9.36822 24.1112C9.51402 24.1448 9.66355 24.1747 9.80935 24.2008C9.89159 24.2158 9.97383 24.2307 10.0561 24.2457C10.2467 24.2756 10.4336 24.3017 10.628 24.3241C10.6692 24.3279 10.7103 24.3353 10.7514 24.3391C10.9832 24.3615 11.2187 24.3802 11.4542 24.3914C11.5215 24.3914 11.5925 24.3914 11.6598 24.3951C11.8318 24.3988 12.0075 24.4026 12.1832 24.3988C12.2243 24.3988 12.2654 24.3988 12.3028 24.3988C12.3551 24.3988 12.4075 24.3914 12.4598 24.3914C12.557 24.3876 12.6579 24.3839 12.7551 24.3764C12.8523 24.369 12.9533 24.3615 13.0505 24.354C13.1589 24.3428 13.271 24.3353 13.3794 24.3204C13.4579 24.3129 13.5327 24.3017 13.6112 24.2905C13.7458 24.2718 13.8766 24.2531 14.0112 24.2307C14.0561 24.2233 14.0972 24.2158 14.1421 24.2083C19.2673 23.2706 23.2897 19.0306 23.9178 13.8229C23.9215 13.7856 23.929 13.7445 23.9327 13.7071C23.9477 13.5838 23.9551 13.4643 23.9664 13.341L23.9626 13.3336ZM18.4374 7.79717C17.9514 8.97393 17.2748 10.0648 16.4822 11.0585C16.0785 11.5665 15.6411 12.0485 15.1813 12.5042C14.7252 12.9525 14.5308 13.2588 14.3701 13.9163C14.1757 14.7083 14.4037 15.646 14.5009 16.4641C14.7626 18.7317 15.0093 21.003 15.2673 23.2669C15.2822 23.4238 14.7439 23.3752 14.6617 23.3715C13.8243 23.308 13.6262 22.3404 13.3495 21.7203C12.7551 20.3605 12.0374 18.9708 11.2336 17.7156C11.1439 17.5774 10.6131 16.9796 10.714 16.8041L15.5776 8.71243L7.74206 13.4232L0.687855 9.84063C0.620565 9.80701 0.770094 9.57913 0.788785 9.55298C1.06168 9.19061 1.58505 9.18314 1.98879 9.14951C2.56823 9.10095 3.14766 9.08601 3.7271 9.10468C4.99813 9.13831 6.25794 9.35872 7.49533 9.62022C8.41121 9.81821 9.79439 10.2441 10.6916 9.7435C11.529 9.28027 12.2056 8.79088 12.9196 8.16701C13.8467 7.35635 14.8748 6.7026 15.9364 6.08994C16.6019 5.70889 17.4729 5.0514 18.2878 5.32037C19.2635 5.64538 18.6878 7.16583 18.4299 7.7897L18.4374 7.79717Z" fill="url(#paint0_linear_357_2276)"/>
</g>
<defs>
<linearGradient id="paint0_linear_357_2276" x1="-0.011215" y1="12.3959" x2="24.0037" y2="12.3959" gradientUnits="userSpaceOnUse">
<stop stop-color="#F25976"/>
<stop offset="1" stop-color="#F14968"/>
</linearGradient>
</defs>
</svg>
