<svg width="24" height="24" viewBox="0 0 24 24" fill="none" xmlns="http://www.w3.org/2000/svg">
<g id="user">
<path id="Vector" fill-rule="evenodd" clip-rule="evenodd" d="M12 10.7996C12.9548 10.7996 13.8704 10.4203 14.5456 9.74519C15.2207 9.07006 15.6 8.15439 15.6 7.19961C15.6 6.24483 15.2207 5.32916 14.5456 4.65403C13.8704 3.97889 12.9548 3.59961 12 3.59961C11.0452 3.59961 10.1295 3.97889 9.45439 4.65403C8.77926 5.32916 8.39998 6.24483 8.39998 7.19961C8.39998 8.15439 8.77926 9.07006 9.45439 9.74519C10.1295 10.4203 11.0452 10.7996 12 10.7996ZM3.59998 21.5996C3.59998 20.4965 3.81725 19.4042 4.23939 18.3851C4.66153 17.3659 5.28027 16.4399 6.06028 15.6599C6.84029 14.8799 7.7663 14.2612 8.78544 13.839C9.80457 13.4169 10.8969 13.1996 12 13.1996C13.1031 13.1996 14.1954 13.4169 15.2145 13.839C16.2337 14.2612 17.1597 14.8799 17.9397 15.6599C18.7197 16.4399 19.3384 17.3659 19.7606 18.3851C20.1827 19.4042 20.4 20.4965 20.4 21.5996H3.59998Z" fill="#F14968"/>
</g>
</svg>
