<svg width="40" height="40" viewBox="0 0 40 40" fill="none" xmlns="http://www.w3.org/2000/svg">
<path d="M34.3289 22.8421C34.3289 30.3779 27.9655 36.5789 20 36.5789C12.0345 36.5789 5.67105 30.3779 5.67105 22.8421C5.67105 15.3063 12.0345 9.10524 20 9.10524C27.9655 9.10524 34.3289 15.3063 34.3289 22.8421Z" stroke="#F14968" stroke-width="2.84211"/>
<path fill-rule="evenodd" clip-rule="evenodd" d="M25.9062 3.89474C25.9062 2.8483 25.0579 2 24.0115 2H15.9885C14.9421 2 14.0938 2.8483 14.0938 3.89474C14.0938 4.94117 14.9421 5.78947 15.9885 5.78947L18.0312 5.78947V9.57887H21.9688V5.78947L24.0115 5.78947C25.0579 5.78947 25.9062 4.94117 25.9062 3.89474Z" fill="#F14968"/>
<rect width="3.8642" height="6.59797" rx="1.9321" transform="matrix(0.720521 0.693433 -0.720521 0.693433 30.9894 6.56503)" fill="#F14968"/>
<ellipse cx="20.0002" cy="22.8421" rx="9.84375" ry="9.47368" fill="#FFCCD0"/>
<path d="M20.0002 13.3684C21.5577 13.3684 23.0929 13.724 24.4797 14.4061C25.8666 15.0882 27.0655 16.0773 27.9779 17.292L20.0002 22.8421V13.3684Z" fill="#F14968"/>
</svg>
