<svg width="20" height="20" viewBox="0 0 20 20" fill="none" xmlns="http://www.w3.org/2000/svg">
<path fill-rule="evenodd" clip-rule="evenodd" d="M9.70703 16.7069C9.5195 16.8944 9.26519 16.9997 9.00003 16.9997C8.73487 16.9997 8.48056 16.8944 8.29303 16.7069L2.29303 10.7069C2.10556 10.5194 2.00024 10.2651 2.00024 9.99992C2.00024 9.73475 2.10556 9.48045 2.29303 9.29292L8.29303 3.29292C8.48163 3.11076 8.73423 3.00997 8.99643 3.01224C9.25863 3.01452 9.50944 3.11969 9.69485 3.3051C9.88026 3.49051 9.98543 3.74132 9.9877 4.00352C9.98998 4.26571 9.88919 4.51832 9.70703 4.70692L5.41403 8.99992H17C17.2652 8.99992 17.5196 9.10528 17.7071 9.29281C17.8947 9.48035 18 9.7347 18 9.99992C18 10.2651 17.8947 10.5195 17.7071 10.707C17.5196 10.8946 17.2652 10.9999 17 10.9999H5.41403L9.70703 15.2929C9.8945 15.4804 9.99982 15.7348 9.99982 15.9999C9.99982 16.2651 9.8945 16.5194 9.70703 16.7069Z" fill="#191919"/>
</svg>
