<svg width="140" height="40" viewBox="0 0 140 40" fill="none" xmlns="http://www.w3.org/2000/svg">
<g clip-path="url(#clip0_218_1904)">
<path d="M20.4577 12.2218H16.9531V4.09731C16.9531 3.49854 17.1292 3.02892 17.4756 2.68845C17.8219 2.34797 18.2915 2.17773 18.8727 2.17773C19.2073 2.17773 19.5184 2.20122 19.8061 2.24818C20.0996 2.29514 20.3168 2.33623 20.4577 2.36558V12.2218ZM16.9531 6.49238H20.4577V16.3955C20.3168 16.4249 20.0996 16.466 19.8061 16.5129C19.5126 16.5599 19.2014 16.5834 18.8727 16.5834C18.2857 16.5834 17.8219 16.4073 17.4756 16.0609C17.1292 15.7146 16.9531 15.2449 16.9531 14.6638V6.49238ZM18.8727 5.01894V2.17773H26.6919C26.8034 2.31862 26.8915 2.50647 26.9619 2.74715C27.0324 2.98196 27.0676 3.24612 27.0676 3.5279C27.0676 4.03274 26.9561 4.40844 26.733 4.65499C26.5099 4.90154 26.2047 5.02481 25.8114 5.02481H18.8727V5.01894ZM18.8727 10.6368V7.79558H26.0286C26.1225 7.95408 26.2105 8.15367 26.2869 8.38848C26.3632 8.62329 26.4043 8.88745 26.4043 9.16922C26.4043 9.67407 26.2869 10.0439 26.0579 10.2846C25.829 10.5194 25.5237 10.6427 25.148 10.6427H18.8727V10.6368ZM18.8727 16.5834V13.7187H26.8093C26.9032 13.8596 26.9913 14.0592 27.0676 14.3116C27.1439 14.564 27.185 14.834 27.185 15.1158C27.185 15.6206 27.0735 15.9905 26.8445 16.2312C26.6156 16.466 26.3103 16.5892 25.9346 16.5892H18.8786L18.8727 16.5834Z" fill="#1E3A8A"/>
<path d="M40.2812 9.16923V10.6251C40.2812 11.0477 39.9348 11.3941 39.5122 11.3941H37.5221C37.0995 11.3941 36.7531 11.0477 36.7531 10.6251V9.28663C36.7531 8.70548 36.5829 8.27108 36.2424 7.99517C35.9019 7.71927 35.4558 7.57838 34.904 7.57838C34.5107 7.57838 34.1467 7.63122 33.8121 7.73101C33.6654 7.77797 33.5245 7.82494 33.3895 7.87777C33.096 7.99517 32.914 8.27695 32.914 8.59394V10.6192C32.914 11.0418 32.5676 11.3882 32.145 11.3882H30.1784C29.7558 11.3882 29.4094 11.0418 29.4094 10.6192V7.69579C29.4094 7.30248 29.4916 6.97375 29.656 6.71545C29.8203 6.45716 30.061 6.22235 30.378 6.01689C30.8829 5.67055 31.5286 5.3829 32.3211 5.15396C33.1077 4.92502 33.9765 4.80762 34.9275 4.80762C36.6357 4.80762 37.9507 5.18331 38.884 5.93471C39.8174 6.6861 40.2812 7.76036 40.2812 9.16923ZM30.1843 10.3022H32.1508C32.5735 10.3022 32.9198 10.6485 32.9198 11.0712V15.8731C32.9198 16.2546 32.6439 16.5834 32.2624 16.6362C32.2624 16.6362 32.2624 16.6362 32.2565 16.6362C31.9747 16.6773 31.6636 16.6949 31.3349 16.6949C30.6715 16.6949 30.1843 16.5775 29.879 16.3368C29.5738 16.102 29.4153 15.6735 29.4153 15.0571V11.0653C29.4153 10.6427 29.7616 10.2963 30.1843 10.2963V10.3022ZM37.5221 10.3022H39.5122C39.9348 10.3022 40.2812 10.6485 40.2812 11.0712V15.8731C40.2812 16.2546 40.0053 16.5834 39.6237 16.6362C39.6237 16.6362 39.6237 16.6362 39.6178 16.6362C39.336 16.6773 39.0249 16.6949 38.6962 16.6949C38.0328 16.6949 37.5456 16.5775 37.2286 16.3368C36.9116 16.102 36.7531 15.6735 36.7531 15.0571V11.0653C36.7531 10.6427 37.0995 10.2963 37.5221 10.2963V10.3022Z" fill="#1E3A8A"/>
<path d="M47.7192 16.0844C46.7858 16.0844 45.9229 15.9083 45.1245 15.5502C44.3262 15.1921 43.6863 14.6051 43.205 13.7715C42.7236 12.9438 42.4829 11.8578 42.4829 10.5135C42.4829 9.26903 42.7295 8.21825 43.2284 7.37293C43.7274 6.52762 44.426 5.88776 45.3241 5.45336C46.2223 5.01896 47.2672 4.80176 48.453 4.80176C49.3042 4.80176 50.0966 4.91916 50.8304 5.1481C51.5642 5.37704 52.1395 5.62359 52.5504 5.89363C52.8322 6.08148 53.0611 6.31042 53.2372 6.56871C53.4133 6.827 53.4955 7.15573 53.4955 7.54904V14.9867H50.1084V7.95409C49.9323 7.86017 49.7268 7.77211 49.4803 7.6958C49.2337 7.61949 48.9343 7.57839 48.5704 7.57839C47.8131 7.57839 47.1909 7.8132 46.7095 8.2887C46.2281 8.76419 45.9875 9.50384 45.9875 10.5135C45.9875 11.6171 46.2105 12.3803 46.6625 12.7971C47.1146 13.2139 47.6781 13.4252 48.359 13.4252C48.8815 13.4252 49.3159 13.3371 49.6622 13.1551C50.0086 12.9732 50.308 12.7736 50.5604 12.5505L50.6543 15.3448C50.3256 15.5502 49.9205 15.7263 49.445 15.8672C48.9696 16.0081 48.3943 16.0785 47.7133 16.0785L47.7192 16.0844ZM50.1847 16.4131V14.2118H53.5014V16.5071C53.5014 17.6107 53.2431 18.5147 52.7324 19.2074C52.2217 19.9001 51.5231 20.4167 50.6484 20.7454C49.7738 21.0741 48.7876 21.2444 47.7016 21.2444C46.8797 21.2444 46.1518 21.1739 45.512 21.033C44.8721 20.8922 44.3849 20.7102 44.0561 20.4871C43.5219 20.1408 43.2519 19.6477 43.2519 19.0195C43.2519 18.6908 43.3165 18.3914 43.4515 18.1331C43.4515 18.1331 43.4515 18.1331 43.4515 18.1273C43.6335 17.7692 44.0855 17.6576 44.4494 17.822C44.7547 17.9629 45.0893 18.092 45.4533 18.2036C46.0344 18.3856 46.6508 18.4736 47.3024 18.4736C48.1888 18.4736 48.8874 18.3092 49.4098 17.9864C49.9323 17.6635 50.1906 17.1352 50.1906 16.4131H50.1847Z" fill="#1E3A8A"/>
<path d="M59.894 12.1747L56.366 12.1043V1.11514C56.5245 1.06818 56.7475 1.02121 57.0293 0.974252C57.3111 0.92729 57.6222 0.903809 57.9509 0.903809C58.6319 0.903809 59.125 1.02121 59.4302 1.2619C59.7355 1.49671 59.894 1.93111 59.894 2.56509V12.1806V12.1747ZM56.366 10.2786L59.894 10.3491V16.507C59.7355 16.5539 59.5124 16.595 59.2307 16.6361C58.9489 16.6772 58.6378 16.6948 58.309 16.6948C57.6457 16.6948 57.1585 16.5774 56.8415 16.3367C56.5245 16.1019 56.366 15.6734 56.366 15.057V10.2728V10.2786Z" fill="#1E3A8A"/>
<path d="M66.3632 12.1043H62.8586V5.30654C62.9995 5.25958 63.2167 5.21262 63.5102 5.16566C63.8038 5.1187 64.1149 5.09521 64.4436 5.09521C65.1246 5.09521 65.6118 5.21262 65.9112 5.44156C66.2106 5.6705 66.3632 6.11077 66.3632 6.7565V12.1102V12.1043ZM62.8586 10.2787H66.3632V16.507C66.2223 16.554 66.011 16.5951 65.7233 16.6362C65.4416 16.6773 65.1304 16.6949 64.8017 16.6949C64.1207 16.6949 63.6276 16.5775 63.3224 16.3368C63.0171 16.102 62.8586 15.6734 62.8586 15.0571V10.2728V10.2787Z" fill="#1E3A8A"/>
<path d="M78.4208 13.2197C78.4208 14.3703 77.9864 15.2743 77.1176 15.9318C76.2488 16.5893 74.9867 16.9121 73.3254 16.9121C72.0281 16.9121 70.9656 16.7243 70.1261 16.3427C69.2867 15.9612 68.8699 15.4035 68.8699 14.6638C68.8699 14.3351 68.9403 14.0416 69.0812 13.8009C69.2221 13.5543 69.4041 13.3606 69.6272 13.2197C70.0674 13.4722 70.584 13.707 71.1769 13.9183C71.7698 14.1296 72.4449 14.2353 73.2022 14.2353C74.3527 14.2353 74.9339 13.9066 74.9339 13.2432C74.9339 12.9615 74.8282 12.7325 74.6286 12.5681C74.4232 12.4038 74.0827 12.2805 73.6072 12.1983L72.6151 11.9635C71.353 11.6935 70.4079 11.2826 69.7857 10.719C69.1634 10.1613 68.8523 9.38646 68.8523 8.41199C68.8523 7.30838 69.2984 6.42784 70.1907 5.77037C71.083 5.1129 72.2864 4.79004 73.8009 4.79004C74.5582 4.79004 75.2509 4.86635 75.8731 5.01311C76.4954 5.16574 76.9885 5.39468 77.3524 5.69993C77.7164 6.00518 77.8984 6.39262 77.8984 6.8505C77.8984 7.1675 77.8338 7.4434 77.7105 7.67821C77.5814 7.91302 77.417 8.11261 77.2116 8.27111C77.0354 8.15957 76.7713 8.04217 76.4191 7.91302C76.0669 7.78388 75.6794 7.68408 75.2568 7.60777C74.84 7.53145 74.4467 7.49036 74.0827 7.49036C73.5133 7.49036 73.073 7.56668 72.756 7.71343C72.439 7.86606 72.2805 8.095 72.2805 8.41199C72.2805 8.61745 72.3686 8.79356 72.5506 8.94619C72.7325 9.09881 73.0495 9.21622 73.5074 9.31602L74.4525 9.55083C75.8555 9.86782 76.8711 10.3198 77.4816 10.9127C78.098 11.5056 78.4032 12.2746 78.4032 13.2197H78.4208Z" fill="#1E3A8A"/>
<path d="M84.1503 12.1043H80.6458V1.11514C80.7866 1.06818 80.998 1.02121 81.2856 0.974252C81.5674 0.92729 81.8785 0.903809 82.2072 0.903809C82.8882 0.903809 83.3813 1.02121 83.6865 1.2619C83.9918 1.49671 84.1503 1.93111 84.1503 2.56509V12.1101V12.1043ZM80.6458 10.2786H84.1503V16.507C83.9918 16.5539 83.7687 16.595 83.487 16.6361C83.2052 16.6772 82.8941 16.6948 82.5653 16.6948C81.902 16.6948 81.4148 16.5774 81.1095 16.3367C80.8042 16.1019 80.6458 15.6734 80.6458 15.057V10.2728V10.2786ZM91.5175 11.6992H87.9895V9.5918C87.9895 8.86389 87.8016 8.34731 87.4318 8.04205C87.062 7.7368 86.5923 7.5783 86.0229 7.5783C85.5181 7.5783 85.0661 7.67223 84.661 7.86008C84.256 8.04792 83.9155 8.26512 83.6278 8.49993L83.5339 5.65873C83.8979 5.45327 84.3499 5.25955 84.8841 5.07757C85.4183 4.89559 86.0112 4.80754 86.6628 4.80754C88.1656 4.80754 89.3455 5.1891 90.2143 5.95811C91.0831 6.72124 91.5175 7.87182 91.5175 9.40396V11.6992ZM87.9895 10.2786H91.5175V16.507C91.359 16.5539 91.1359 16.595 90.8541 16.6361C90.5724 16.6772 90.2612 16.6948 89.9325 16.6948C89.2516 16.6948 88.7585 16.5774 88.4532 16.3367C88.148 16.1019 87.9895 15.6734 87.9895 15.057V10.2728V10.2786Z" fill="#1E3A8A"/>
<path d="M28.6642 30.3963V31.8521C28.6642 32.2748 28.3179 32.6211 27.8952 32.6211H25.9052C25.4825 32.6211 25.1362 32.2748 25.1362 31.8521V30.5137C25.1362 29.9325 24.9659 29.4981 24.6255 29.2222C24.285 28.9463 23.8389 28.8054 23.2871 28.8054C22.8937 28.8054 22.5298 28.8583 22.1952 28.9581C22.0484 29.005 21.9075 29.052 21.7725 29.1048C21.479 29.2222 21.297 29.504 21.297 29.821V31.8462C21.297 32.2689 20.9507 32.6152 20.528 32.6152H18.5615C18.1388 32.6152 17.7925 32.2689 17.7925 31.8462V28.9228C17.7925 28.5295 17.8747 28.2008 18.039 27.9425C18.2034 27.6842 18.4441 27.4494 18.7611 27.2439C19.2659 26.8976 19.9116 26.61 20.7041 26.381C21.4907 26.1521 22.3595 26.0347 23.3105 26.0347C25.0188 26.0347 26.3337 26.4104 27.2671 27.1618C28.2005 27.9132 28.6642 28.9874 28.6642 30.3963ZM18.5615 31.5351H20.528C20.9507 31.5351 21.297 31.8815 21.297 32.3041V37.106C21.297 37.4876 21.0211 37.8163 20.6396 37.8691C20.6396 37.8691 20.6396 37.8691 20.6337 37.8691C20.3519 37.9102 20.0408 37.9278 19.7121 37.9278C19.0487 37.9278 18.5615 37.8104 18.2562 37.5697C17.951 37.3349 17.7925 36.9064 17.7925 36.29V32.2982C17.7925 31.8756 18.1388 31.5292 18.5615 31.5292V31.5351ZM25.9052 31.5351H27.8952C28.3179 31.5351 28.6642 31.8815 28.6642 32.3041V37.106C28.6642 37.4876 28.3883 37.8163 28.0067 37.8691C28.0067 37.8691 28.0067 37.8691 28.0009 37.8691C27.7191 37.9102 27.408 37.9278 27.0792 37.9278C26.4159 37.9278 25.9287 37.8104 25.6117 37.5697C25.2947 37.3349 25.1362 36.9064 25.1362 36.29V32.2982C25.1362 31.8756 25.4825 31.5292 25.9052 31.5292V31.5351Z" fill="#1E3A8A"/>
<path d="M34.9689 28.4766H31.4644V22.3422C31.6053 22.2952 31.8225 22.2483 32.1042 22.2013C32.386 22.1543 32.6971 22.1309 33.0259 22.1309C33.7068 22.1309 34.1999 22.2483 34.5052 22.4889C34.8104 22.7238 34.9689 23.1582 34.9689 23.7921V28.4825V28.4766ZM37.4286 26.0405C38.4559 26.0405 39.3892 26.2635 40.2228 26.7155C41.0623 27.1675 41.7256 27.8368 42.2128 28.729C42.7001 29.6213 42.9466 30.7249 42.9466 32.034C42.9466 33.3431 42.6883 34.476 42.1776 35.3742C41.6669 36.2723 40.939 36.9592 40.0115 37.4229C39.0781 37.8867 37.9921 38.1215 36.7417 38.1215C35.7614 38.1215 34.922 38.0041 34.2175 37.7634C33.5131 37.5286 32.9261 37.2527 32.4506 36.9357C32.116 36.7009 31.8694 36.4367 31.705 36.1549C31.5407 35.8732 31.4585 35.5386 31.4585 35.1629V27.6548H34.9396V34.9046C35.1274 35.0161 35.374 35.1159 35.6733 35.2098C35.9727 35.3037 36.3132 35.3507 36.6948 35.3507C37.499 35.3507 38.1447 35.0748 38.6261 34.523C39.1075 33.9712 39.3481 33.1435 39.3481 32.034C39.3481 30.9245 39.1133 30.0968 38.6496 29.5802C38.1858 29.0695 37.5636 28.8112 36.7887 28.8112C36.2839 28.8112 35.8318 28.9051 35.4385 29.093C35.0452 29.2808 34.7048 29.498 34.423 29.7329L34.3291 26.8916C34.693 26.6862 35.1392 26.4925 35.6675 26.3105C36.1958 26.1285 36.7828 26.0405 37.4344 26.0405H37.4286Z" fill="#1E3A8A"/>
<path d="M56.642 32.0752C56.642 33.3079 56.3954 34.3763 55.8964 35.2862C55.3975 36.1961 54.6989 36.8947 53.8007 37.3819C52.9026 37.8691 51.8401 38.1157 50.6249 38.1157C49.4098 38.1157 48.3531 37.875 47.4491 37.3936C46.551 36.9123 45.8524 36.2196 45.3534 35.3097C44.8545 34.3998 44.6079 33.3255 44.6079 32.0752C44.6079 30.8248 44.8603 29.7799 45.3652 28.8759C45.87 27.9777 46.5744 27.2792 47.4843 26.7802C48.3942 26.2812 49.445 26.0347 50.6484 26.0347C51.8518 26.0347 52.8967 26.2812 53.789 26.7802C54.6813 27.2792 55.3798 27.9777 55.8847 28.8876C56.3895 29.7975 56.642 30.86 56.642 32.0752ZM50.6249 28.8113C49.8794 28.8113 49.2924 29.0931 48.858 29.6625C48.4236 30.2319 48.2064 31.0361 48.2064 32.081C48.2064 33.126 48.4177 33.9478 48.8462 34.5113C49.2748 35.0749 49.8618 35.3508 50.6249 35.3508C51.3881 35.3508 51.9751 35.069 52.4036 34.4996C52.8322 33.9302 53.0435 33.126 53.0435 32.081C53.0435 31.0361 52.8322 30.2554 52.4036 29.6742C51.9751 29.0989 51.3881 28.8113 50.6249 28.8113Z" fill="#1E3A8A"/>
<path d="M63.4102 26.0405C65.0539 26.0405 66.3629 26.3869 67.3433 27.0737C68.3236 27.7605 68.8108 28.823 68.8108 30.2612V35.6384C68.8108 36.0317 68.7052 36.3546 68.5056 36.5953C68.3001 36.8418 68.0418 37.0473 67.7248 37.2234C67.2493 37.5052 66.6623 37.7341 65.9579 37.8985C65.2534 38.0628 64.4551 38.145 63.5511 38.145C61.9426 38.145 60.657 37.828 59.7002 37.1999C58.7433 36.5659 58.2678 35.6267 58.2678 34.3822C58.2678 33.3079 58.5966 32.4861 59.2599 31.9049C59.9232 31.3296 60.9094 30.9774 62.2185 30.8483L65.3708 30.5195V30.2378C65.3708 29.7036 65.1595 29.3161 64.7427 29.0755C64.3259 28.8406 63.7272 28.7174 62.9523 28.7174C62.3535 28.7174 61.7665 28.7878 61.1853 28.9287C60.8155 29.0168 60.475 29.1165 60.158 29.2281C59.7765 29.3572 59.3421 29.2105 59.1542 28.8524C59.1542 28.8524 59.1542 28.8524 59.1542 28.8465C59.0192 28.5882 58.9546 28.3123 58.9546 28.0305C58.9546 27.3672 59.3186 26.8858 60.0465 26.5865C60.5044 26.3986 61.0386 26.2577 61.6432 26.1697C62.2479 26.0816 62.8408 26.0405 63.4102 26.0405ZM63.5569 35.5093C63.9209 35.5093 64.279 35.474 64.6371 35.4036C64.9951 35.3332 65.2476 35.251 65.4061 35.1571V32.8853L63.416 33.0731C62.8819 33.1025 62.4533 33.214 62.1363 33.4018C61.8193 33.5897 61.6608 33.8773 61.6608 34.253C61.6608 34.6287 61.8135 34.934 62.1128 35.1629C62.4122 35.3919 62.8936 35.5093 63.5569 35.5093Z" fill="#1E3A8A"/>
<path d="M75.0217 30.543V32.4097H71.5171V29.0226C71.5171 28.5823 71.6228 28.2066 71.84 27.8955C72.0513 27.5902 72.3507 27.3143 72.7264 27.0795C73.2488 26.7625 73.8769 26.516 74.6107 26.334C75.3445 26.152 76.1135 26.064 76.9177 26.064C78.5262 26.064 79.3363 26.5982 79.3363 27.6724C79.3363 27.9248 79.3011 28.1596 79.2306 28.3827C79.125 28.7056 78.808 28.911 78.4734 28.8758H78.4029C78.174 28.8465 77.9274 28.8347 77.6574 28.8347C77.1819 28.8347 76.7123 28.8876 76.2368 28.9991H76.2251C75.5206 29.1635 75.0334 29.8151 75.0334 30.543H75.0217ZM71.5112 31.5116L75.0158 31.582V37.7399C74.8573 37.7869 74.6342 37.828 74.3524 37.8691C74.0707 37.9102 73.7595 37.9278 73.4308 37.9278C72.7675 37.9278 72.2802 37.8104 71.975 37.5697C71.6697 37.3349 71.5112 36.9063 71.5112 36.29V31.5057V31.5116Z" fill="#1E3A8A"/>
<path d="M88.0479 34.9457V27.8133H91.5524V35.3918C91.5524 35.7734 91.4702 36.0904 91.3176 36.3486C91.1591 36.6069 90.9067 36.8417 90.5604 37.0472C90.1318 37.329 89.58 37.5814 88.8932 37.7927C88.2064 38.0041 87.4139 38.1097 86.5099 38.1097C85.2008 38.1097 84.0678 37.8867 83.111 37.4464C82.1541 37.0061 81.4203 36.3369 80.9096 35.4446C80.3989 34.5523 80.1406 33.4429 80.1406 32.1162C80.1406 30.7895 80.4048 29.5861 80.9331 28.6938C81.4614 27.8015 82.1776 27.1323 83.0758 26.6921C83.9739 26.2518 84.9719 26.0287 86.0579 26.0287C86.6273 26.0287 87.1321 26.0933 87.5724 26.2166C88.0127 26.3457 88.3766 26.4925 88.6643 26.6686V29.5567C88.4412 29.3689 88.1535 29.1928 87.7896 29.0343C87.4256 28.8758 87.0088 28.7995 86.5333 28.7995C85.9815 28.7995 85.4884 28.9169 85.0658 29.1576C84.6372 29.3924 84.3085 29.7563 84.0737 30.2494C83.8389 30.7367 83.7156 31.3648 83.7156 32.1221C83.7156 33.2257 83.9622 34.0416 84.4611 34.5641C84.9601 35.0865 85.6352 35.3448 86.4864 35.3448C86.8327 35.3448 87.1439 35.3037 87.408 35.2157C87.6781 35.1276 87.8894 35.0396 88.0479 34.9457ZM91.5524 28.5001L88.0479 28.5236V22.3422C88.1888 22.2952 88.406 22.2483 88.6877 22.2013C88.9695 22.1543 89.2806 22.1309 89.6094 22.1309C90.3021 22.1309 90.801 22.2483 91.1004 22.4889C91.3998 22.7238 91.5524 23.1582 91.5524 23.7921V28.506V28.5001Z" fill="#1E3A8A"/>
<path d="M62.6411 1.8961C62.6411 1.3619 62.829 0.909891 63.1988 0.545935C63.5686 0.181978 64.0382 0 64.6077 0C65.1771 0 65.6643 0.181978 66.0283 0.545935C66.3922 0.909891 66.5742 1.3619 66.5742 1.8961C66.5742 2.43029 66.3922 2.86469 66.0283 3.24626C65.6643 3.62783 65.1888 3.81567 64.6077 3.81567C64.0265 3.81567 63.5686 3.62783 63.1988 3.24626C62.829 2.86469 62.6411 2.41855 62.6411 1.8961Z" fill="url(#paint0_linear_218_1904)"/>
<path d="M15.4682 30.5609C15.4682 32.2046 15.1512 33.59 14.5113 34.7171C13.8715 35.8442 12.9968 36.7012 11.8814 37.2883C10.7661 37.8694 9.50985 38.1629 8.10099 38.1629C6.69212 38.1629 5.44175 37.8694 4.33227 37.2883C3.22866 36.7071 2.35986 35.85 1.72587 34.7171C1.09189 33.59 0.780762 32.2046 0.780762 30.5609C0.780762 28.9173 1.10363 27.5319 1.74936 26.4048C2.39509 25.2777 3.27563 24.4206 4.37924 23.8453C5.48285 23.2701 6.72147 22.9824 8.10099 22.9824C9.4805 22.9824 10.7426 23.2701 11.858 23.8453C12.9733 24.4206 13.8538 25.2718 14.4996 26.4048C15.1453 27.5319 15.4682 28.9173 15.4682 30.5609ZM11.7464 30.5609C11.7464 29.0464 11.4177 27.89 10.7661 27.1033C10.1086 26.3167 9.22221 25.9176 8.10099 25.9176C6.97976 25.9176 6.15793 26.3109 5.49459 27.0916C4.83125 27.8724 4.50251 29.0288 4.50251 30.5609C4.50251 32.0931 4.83125 33.273 5.48285 34.0537C6.14032 34.8345 7.02086 35.2278 8.12447 35.2278C9.22808 35.2278 10.1086 34.8345 10.7661 34.0537C11.4236 33.273 11.7464 32.1048 11.7464 30.5609Z" fill="#1E3A8A"/>
<path d="M125.236 16.1377L111.365 27.3793C109.604 28.8057 107.414 29.6452 105.154 29.5982C104.503 29.5865 103.874 29.5043 103.358 29.3047C105.113 32.9619 108.019 35.9616 111.6 37.8459C111.6 34.5821 112.733 31.4121 114.799 28.8879L125.236 16.1377Z" fill="white"/>
<path d="M130.256 10.0442C128.976 9.61567 127.608 10.6547 126.563 11.2535C124.89 12.2162 123.282 13.2494 121.826 14.5173C120.705 15.4977 119.642 16.2667 118.327 16.9946C116.918 17.7812 114.746 17.1061 113.308 16.8009C111.359 16.39 109.387 16.0436 107.391 15.9908C106.481 15.9614 105.565 15.9908 104.661 16.0612C104.027 16.1141 103.205 16.1199 102.777 16.6952C102.748 16.7304 102.513 17.0944 102.618 17.1472L113.696 22.7768L126 15.3744L118.363 28.0894C118.204 28.3653 119.038 29.3045 119.178 29.5217C120.441 31.4942 121.568 33.6779 122.501 35.8147C122.93 36.795 123.247 38.3154 124.562 38.4093C124.691 38.4211 125.536 38.4915 125.512 38.245C125.107 34.6876 124.72 31.1185 124.309 27.5552C124.156 26.2696 123.798 24.7962 124.104 23.5517C124.356 22.5185 124.661 22.0372 125.377 21.3327C126.105 20.6165 126.792 19.8593 127.42 19.0609C128.665 17.4994 129.727 15.7794 130.49 13.9362C130.896 12.9559 131.8 10.5667 130.267 10.0559L130.256 10.0442Z" fill="white"/>
<path d="M139.155 22.6241C139.167 22.4891 139.178 22.36 139.184 22.225C139.196 22.0723 139.196 21.9138 139.202 21.7553C139.202 21.6262 139.213 21.497 139.213 21.3679C139.213 21.3327 139.213 21.2975 139.213 21.2622C139.213 21.0744 139.213 20.8924 139.208 20.7104C139.208 20.5637 139.208 20.4169 139.196 20.2702C139.19 20.0823 139.172 19.8945 139.161 19.7125C139.149 19.5716 139.143 19.4307 139.131 19.2898C139.114 19.0961 139.084 18.9024 139.061 18.7087C139.043 18.5795 139.032 18.4504 139.014 18.3212C138.985 18.1099 138.943 17.9044 138.902 17.6931C138.885 17.5874 138.867 17.4759 138.844 17.3702C138.785 17.0943 138.72 16.8184 138.656 16.5425C138.644 16.5073 138.638 16.4721 138.632 16.4369C138.55 16.1257 138.468 15.8205 138.374 15.5211C138.351 15.4448 138.321 15.3744 138.298 15.3039C138.221 15.075 138.151 14.8519 138.069 14.6288C138.034 14.529 137.992 14.4292 137.951 14.3294C137.875 14.1357 137.805 13.942 137.722 13.7542C137.675 13.6426 137.623 13.537 137.576 13.4313C137.493 13.2552 137.417 13.0791 137.335 12.903C137.282 12.7914 137.223 12.6799 137.165 12.5742C137.077 12.4099 136.995 12.2396 136.906 12.0753C136.848 11.9637 136.777 11.8522 136.719 11.7465C136.625 11.588 136.537 11.4295 136.437 11.271C136.366 11.1595 136.296 11.0538 136.231 10.9482C136.132 10.7955 136.032 10.6429 135.932 10.4962C135.862 10.3905 135.785 10.2848 135.709 10.1792C135.603 10.0324 135.498 9.88565 135.392 9.74477C135.316 9.6391 135.233 9.53931 135.151 9.43951C135.04 9.29863 134.928 9.15774 134.811 9.02273C134.729 8.92293 134.641 8.82901 134.558 8.72921C134.441 8.5942 134.318 8.45918 134.2 8.33003C134.112 8.23611 134.024 8.14219 133.93 8.04826C133.807 7.91912 133.678 7.78997 133.549 7.66669C133.455 7.57864 133.361 7.48472 133.267 7.39666C133.138 7.27339 133.003 7.15598 132.868 7.0327C132.768 6.94465 132.674 6.86247 132.574 6.77441C132.439 6.65701 132.298 6.54547 132.157 6.43394C132.058 6.35175 131.952 6.26957 131.852 6.19326C131.711 6.08172 131.565 5.97606 131.418 5.87039C131.312 5.79408 131.206 5.71777 131.101 5.64145C130.954 5.54166 130.801 5.44186 130.649 5.34207C130.537 5.27163 130.432 5.20118 130.32 5.13074C130.167 5.03681 130.009 4.94289 129.856 4.85484C129.745 4.79026 129.633 4.72569 129.516 4.66112C129.357 4.57306 129.193 4.49088 129.034 4.40283C128.917 4.34412 128.806 4.28542 128.688 4.22672C128.524 4.14453 128.353 4.06822 128.189 3.99191C128.072 3.93907 127.954 3.88624 127.837 3.83341C127.667 3.7571 127.491 3.69252 127.32 3.62208C127.203 3.57512 127.086 3.52816 126.962 3.48119C126.786 3.41662 126.604 3.35792 126.428 3.29334C126.311 3.25225 126.187 3.21116 126.07 3.17007C125.882 3.11137 125.694 3.05853 125.506 3.0057C125.389 2.97048 125.272 2.93526 125.154 2.90591C124.955 2.85307 124.755 2.81198 124.55 2.76502C124.438 2.74154 124.332 2.71219 124.221 2.68871C123.986 2.64174 123.751 2.60065 123.516 2.55956C123.434 2.54782 123.352 2.53021 123.276 2.51847C122.959 2.47151 122.636 2.43042 122.307 2.39519C122.254 2.39519 122.201 2.38932 122.154 2.38345C121.879 2.35997 121.609 2.33649 121.333 2.32475C121.215 2.32475 121.098 2.32475 120.98 2.31301C120.769 2.30714 120.558 2.30127 120.341 2.30127C120.206 2.30127 120.076 2.30714 119.941 2.31301C119.742 2.31301 119.548 2.31888 119.349 2.33062C119.325 2.33062 119.296 2.33062 119.272 2.33062C119.055 2.34236 118.838 2.36584 118.626 2.38345C118.568 2.38345 118.503 2.38932 118.444 2.40106C118.133 2.43042 117.828 2.47151 117.523 2.51847C117.482 2.52434 117.435 2.53608 117.394 2.54195C117.147 2.58304 116.901 2.62413 116.654 2.67697C116.46 2.71806 116.267 2.75915 116.079 2.80611C115.991 2.82959 115.903 2.8472 115.815 2.86482C115.568 2.92352 115.327 2.99396 115.087 3.0644C115.057 3.07027 115.028 3.08202 115.005 3.08789C108.847 4.93702 103.968 9.87978 102.231 16.0964C102.201 16.1962 102.172 16.296 102.143 16.3958C102.113 16.5073 102.09 16.6189 102.061 16.7304C102.014 16.9182 101.967 17.1061 101.931 17.2998C101.914 17.3879 101.896 17.4818 101.879 17.5698C101.837 17.7812 101.796 17.9925 101.767 18.2097C101.755 18.2977 101.744 18.3917 101.726 18.4856C101.697 18.6969 101.667 18.9083 101.644 19.1196C101.632 19.2253 101.62 19.3368 101.614 19.4424C101.603 19.5599 101.591 19.6773 101.579 19.7947C101.573 19.8945 101.567 19.9884 101.562 20.0882C101.562 20.1469 101.556 20.2115 101.55 20.2702C101.538 20.5578 101.526 20.8396 101.526 21.1272C101.526 21.1683 101.526 21.2153 101.526 21.2564C101.526 21.5088 101.532 21.7671 101.544 22.0195C101.544 22.0841 101.544 22.1428 101.55 22.2073C101.567 22.4833 101.585 22.765 101.614 23.0351C101.614 23.0938 101.626 23.1525 101.632 23.2112C101.656 23.446 101.685 23.6808 101.72 23.9097C101.732 23.9684 101.738 24.033 101.744 24.0917C101.785 24.3559 101.832 24.6142 101.884 24.8783C101.902 24.9546 101.914 25.0251 101.931 25.1014C101.978 25.3186 102.025 25.5358 102.078 25.7471C102.09 25.8058 102.108 25.8645 102.119 25.9232C102.184 26.1756 102.254 26.4222 102.331 26.6688C102.354 26.7451 102.378 26.8214 102.401 26.8977C102.471 27.1266 102.554 27.3556 102.63 27.5845C102.642 27.6139 102.648 27.6373 102.659 27.6667C102.753 27.925 102.853 28.1774 102.959 28.4298C102.976 28.4768 103 28.5238 103.017 28.5707C103.123 28.8173 103.235 29.0697 103.352 29.3104C103.352 29.3104 103.352 29.3104 103.352 29.3162C103.863 29.5158 104.491 29.598 105.148 29.6098C107.408 29.6567 109.604 28.8114 111.359 27.3908L125.231 16.1492L114.793 28.8994C112.727 31.4295 111.594 34.5936 111.594 37.8575C111.647 37.8868 111.705 37.9103 111.758 37.9397C111.993 38.0571 112.228 38.1745 112.469 38.286C112.58 38.3388 112.692 38.3917 112.809 38.4386C113.032 38.5384 113.261 38.6265 113.49 38.7204C113.596 38.7615 113.707 38.8085 113.813 38.8496C114.136 38.967 114.459 39.0785 114.787 39.1842C114.893 39.2194 114.999 39.2429 115.104 39.2722C115.345 39.3427 115.586 39.4072 115.832 39.4659C115.967 39.5012 116.102 39.5305 116.237 39.5599C116.466 39.6127 116.701 39.6597 116.93 39.7007C117.059 39.7242 117.188 39.7477 117.317 39.7712C117.617 39.8181 117.91 39.8592 118.216 39.8945C118.28 39.9003 118.345 39.9121 118.409 39.9179C118.773 39.9532 119.143 39.9825 119.513 40.0001C119.619 40.0001 119.73 40.0001 119.836 40.006C120.106 40.0119 120.382 40.0177 120.658 40.0119C120.722 40.0119 120.787 40.0119 120.845 40.0119C120.928 40.0119 121.01 40.0001 121.092 40.0001C121.245 39.9943 121.403 39.9884 121.556 39.9766C121.708 39.9649 121.867 39.9532 122.019 39.9414C122.19 39.9238 122.366 39.9121 122.536 39.8886C122.659 39.8769 122.777 39.8592 122.9 39.8416C123.111 39.8123 123.317 39.7829 123.528 39.7477C123.599 39.736 123.663 39.7242 123.734 39.7125C131.782 38.239 138.098 31.5763 139.084 23.3931C139.09 23.3344 139.102 23.2699 139.108 23.2112C139.131 23.0174 139.143 22.8296 139.161 22.6359L139.155 22.6241ZM130.479 13.9244C129.715 15.7735 128.653 17.4877 127.408 19.0491C126.774 19.8475 126.088 20.6048 125.366 21.3209C124.649 22.0254 124.344 22.5067 124.092 23.5399C123.786 24.7844 124.145 26.2578 124.297 27.5434C124.708 31.1067 125.095 34.6758 125.501 38.2332C125.524 38.4797 124.679 38.4034 124.55 38.3975C123.235 38.2978 122.923 36.7773 122.489 35.8029C121.556 33.6661 120.429 31.4824 119.167 29.51C119.026 29.2928 118.192 28.3535 118.351 28.0776L125.988 15.3626L113.684 22.765L102.607 17.1354C102.501 17.0826 102.736 16.7245 102.765 16.6834C103.194 16.114 104.015 16.1023 104.649 16.0494C105.559 15.9731 106.469 15.9496 107.379 15.979C109.375 16.0318 111.353 16.3782 113.296 16.7891C114.734 17.1002 116.906 17.7694 118.315 16.9828C119.63 16.2549 120.693 15.4859 121.814 14.5056C123.27 13.2317 124.884 12.2044 126.551 11.2417C127.596 10.6429 128.964 9.60975 130.244 10.0324C131.776 10.5431 130.872 12.9323 130.467 13.9127L130.479 13.9244Z" fill="url(#paint1_linear_218_1904)"/>
</g>
<defs>
<linearGradient id="paint0_linear_218_1904" x1="62.6393" y1="1.90712" x2="66.5748" y2="1.90712" gradientUnits="userSpaceOnUse">
<stop stop-color="#F25976"/>
<stop offset="1" stop-color="#F14968"/>
</linearGradient>
<linearGradient id="paint1_linear_218_1904" x1="101.509" y1="21.1507" x2="139.219" y2="21.1507" gradientUnits="userSpaceOnUse">
<stop stop-color="#F25976"/>
<stop offset="1" stop-color="#F14968"/>
</linearGradient>
<clipPath id="clip0_218_1904">
<rect width="138.439" height="40" fill="white" transform="translate(0.780762)"/>
</clipPath>
</defs>
</svg>
