<svg width="24" height="24" viewBox="0 0 24 24" fill="none" xmlns="http://www.w3.org/2000/svg">
<path fill-rule="evenodd" clip-rule="evenodd" d="M3.60002 3.59998C3.28176 3.59998 2.97654 3.7264 2.7515 3.95145C2.52645 4.17649 2.40002 4.48172 2.40002 4.79998V19.2C2.40002 19.5182 2.52645 19.8235 2.7515 20.0485C2.97654 20.2735 3.28176 20.4 3.60002 20.4C3.91828 20.4 4.22351 20.2735 4.44855 20.0485C4.6736 19.8235 4.80002 19.5182 4.80002 19.2V4.79998C4.80002 4.48172 4.6736 4.17649 4.44855 3.95145C4.22351 3.7264 3.91828 3.59998 3.60002 3.59998ZM15.9516 14.7516C15.733 14.9779 15.6121 15.281 15.6148 15.5957C15.6176 15.9103 15.7438 16.2113 15.9662 16.4338C16.1887 16.6562 16.4897 16.7825 16.8043 16.7852C17.119 16.7879 17.4221 16.667 17.6484 16.4484L21.2484 12.8484C21.4734 12.6233 21.5998 12.3182 21.5998 12C21.5998 11.6818 21.4734 11.3766 21.2484 11.1516L17.6484 7.55158C17.5377 7.43696 17.4053 7.34555 17.2589 7.28265C17.1125 7.21976 16.955 7.18666 16.7957 7.18528C16.6364 7.18389 16.4784 7.21425 16.3309 7.27459C16.1834 7.33493 16.0494 7.42403 15.9368 7.5367C15.8241 7.64937 15.735 7.78336 15.6746 7.93083C15.6143 8.07831 15.5839 8.23632 15.5853 8.39566C15.5867 8.55499 15.6198 8.71246 15.6827 8.85886C15.7456 9.00527 15.837 9.13768 15.9516 9.24838L17.5032 10.8H8.40002C8.08176 10.8 7.77654 10.9264 7.5515 11.1514C7.32645 11.3765 7.20002 11.6817 7.20002 12C7.20002 12.3182 7.32645 12.6235 7.5515 12.8485C7.77654 13.0735 8.08176 13.2 8.40002 13.2H17.5032L15.9516 14.7516Z" fill="#F14968"/>
</svg>
