<svg width="29" height="30" viewBox="0 0 29 30" fill="none" xmlns="http://www.w3.org/2000/svg">
<path fill-rule="evenodd" clip-rule="evenodd" d="M6.38206 6.78141C6.6521 6.51145 7.01831 6.3598 7.40014 6.3598C7.78198 6.3598 8.14818 6.51145 8.41822 6.78141L14.6001 12.9633L20.7821 6.78141C20.9149 6.64388 21.0738 6.53417 21.2495 6.45871C21.4252 6.38324 21.6141 6.34351 21.8053 6.34185C21.9965 6.34019 22.1861 6.37662 22.3631 6.44903C22.5401 6.52143 22.7009 6.62836 22.8361 6.76356C22.9713 6.89877 23.0782 7.05955 23.1506 7.23652C23.223 7.41349 23.2594 7.60311 23.2578 7.79431C23.2561 7.98551 23.2164 8.17447 23.1409 8.35015C23.0655 8.52584 22.9558 8.68474 22.8182 8.81757L16.6363 14.9995L22.8182 21.1814C23.0805 21.453 23.2257 21.8167 23.2224 22.1943C23.2191 22.5719 23.0677 22.933 22.8007 23.2C22.5337 23.467 22.1725 23.6185 21.795 23.6217C21.4174 23.625 21.0536 23.4799 20.7821 23.2176L14.6001 17.0357L8.41822 23.2176C8.14663 23.4799 7.78289 23.625 7.40532 23.6217C7.02776 23.6185 6.66659 23.467 6.3996 23.2C6.13262 22.933 5.98117 22.5719 5.97789 22.1943C5.97461 21.8167 6.11975 21.453 6.38206 21.1814L12.564 14.9995L6.38206 8.81757C6.1121 8.54753 5.96045 8.18133 5.96045 7.79949C5.96045 7.41766 6.1121 7.05145 6.38206 6.78141Z" fill="#F14968"/>
</svg>
